<svg id="Layer_1" data-name="Layer 1" xmlns="http://www.w3.org/2000/svg" viewBox="0 0 50 50"><defs><style>.cls-1{fill:#e6e6e5;}.cls-2{fill:#818181;}</style></defs><title>facebook</title><g id="Facebook"><circle id="back" class="cls-1" cx="25" cy="25" r="25"/><path id="Path_2" data-name="Path 2" class="cls-2" d="M1284.46,1270.94c.86,0,1.68,0,2.54,0h.35v-4.41c-.47,0-.94-.12-1.41-.12-.86,0-1.75-.08-2.61-.08a6.55,6.55,0,0,0-3.68,1.14,5.58,5.58,0,0,0-2.22,3.67,9.77,9.77,0,0,0-.16,1.87c0,1,0,2,0,3v.39h-4.22v4.93h4.18v12.37h5.12v-12.34h4.18c.2-1.64.43-3.24.63-5h-4.85s0-2.43,0-3.52C1282.43,1271.44,1283.29,1271,1284.46,1270.94Z" transform="translate(-1255.2 -1255)"/></g></svg>