<svg id="Layer_1" data-name="Layer 1" xmlns="http://www.w3.org/2000/svg" viewBox="0 0 50 50"><defs><style>.cls-1{fill:#e6e6e5;}.cls-2{fill:#818181;}</style></defs><title>instagram</title><g id="Instagram"><circle id="back" class="cls-1" cx="25" cy="25" r="25"/><path id="Path_1" data-name="Path 1" class="cls-2" d="M1273.05,1280a7.15,7.15,0,1,1,7.15,7.15h0A7.15,7.15,0,0,1,1273.05,1280Zm14.53-14h-14.76a6.61,6.61,0,0,0-6.6,6.6v14.76a6.61,6.61,0,0,0,6.6,6.6h14.76a6.62,6.62,0,0,0,6.6-6.6v-14.76A6.62,6.62,0,0,0,1287.58,1266Zm-14.76,1.64h14.76a5,5,0,0,1,5,5v14.76a5,5,0,0,1-5,5h-14.76a5,5,0,0,1-5-5v-14.76a5,5,0,0,1,5-5Zm16.25,2.07a1.45,1.45,0,1,0,1.44,1.44A1.46,1.46,0,0,0,1289.07,1269.73Zm.15,10.27a9,9,0,1,0-9,9h0A9,9,0,0,0,1289.22,1280Z" transform="translate(-1255.2 -1255)"/></g></svg>