<svg id="Logo_Outline_Unite_-_White" data-name="Logo (Outline &amp; Unite) - White" xmlns="http://www.w3.org/2000/svg" viewBox="0 0 1500.27 1500.25"><defs><style>.cls-1{fill:#fff;stroke:#000;stroke-miterlimit:10;stroke-width:0.25px;}</style></defs><title>logo-white</title><path class="cls-1" d="M1229.81,1229.81a325.16,325.16,0,0,1-545.47-152L1750,984.57,1741.28,885,675.74,978.18a325.17,325.17,0,0,1,623.79-104.71l103.39-9q-5.1-15.1-11.34-29.87a424.88,424.88,0,0,0-692.1-135.08Q686.61,712.35,675,726.14V250H575V987l-325,28.44,8.72,99.62L575,1087.37V1750H675V1273.86q11.64,13.77,24.48,26.66a425,425,0,0,0,720.8-236.85l-103.41,9A322.89,322.89,0,0,1,1229.81,1229.81Z" transform="translate(-249.86 -249.88)"/></svg>