<svg id="Layer_1" data-name="Layer 1" xmlns="http://www.w3.org/2000/svg" viewBox="0 0 50 50"><defs><style>.cls-1{fill:#e6e6e5;}.cls-2{fill:#818181;}</style></defs><title>twitter</title><g id="Twitter"><circle id="back" class="cls-1" cx="25" cy="25" r="25"/><path id="Twitter-2" data-name="Twitter" class="cls-2" d="M1294.19,1271.33a10.72,10.72,0,0,1-3.29.9,5.83,5.83,0,0,0,2.54-3.17,11.57,11.57,0,0,1-3.63,1.41,5.66,5.66,0,0,0-4.18-1.8,5.75,5.75,0,0,0-5.74,5.74,4.94,4.94,0,0,0,.15,1.33,16.25,16.25,0,0,1-11.83-6,5.59,5.59,0,0,0-.78,2.9,5.7,5.7,0,0,0,2.54,4.76,6,6,0,0,1-2.62-.7v.08a5.74,5.74,0,0,0,4.61,5.62,6,6,0,0,1-1.52.2,5.78,5.78,0,0,1-1.1-.11,5.75,5.75,0,0,0,5.35,4,11.61,11.61,0,0,1-7.14,2.46c-.47,0-.94,0-1.37-.08a16,16,0,0,0,8.79,2.58c10.54,0,16.33-8.75,16.33-16.33v-.74A11.82,11.82,0,0,0,1294.19,1271.33Z" transform="translate(-1255.2 -1255)"/></g></svg>