<?xml version="1.0" encoding="utf-8"?>
<!-- Generator: Adobe Illustrator 22.1.0, SVG Export Plug-In . SVG Version: 6.00 Build 0)  -->
<svg version="1.1" id="Planet_B_Logo" xmlns="http://www.w3.org/2000/svg" xmlns:xlink="http://www.w3.org/1999/xlink" x="0px"
	 y="0px" viewBox="0 0 1193.6 246.6" style="enable-background:new 0 0 1193.6 246.6;" xml:space="preserve">
<style type="text/css">
	.st0{fill:#F2F2F2;}
</style>
<title>planetB_logoWordmark_white</title>
<path class="st0" d="M75,48.3c-41.4,0-75,33.6-75,75v123.3h10v-86c20.6,35.9,66.4,48.4,102.4,27.8c35.9-20.6,48.4-66.4,27.8-102.4
	C126.8,62.7,101.9,48.3,75,48.3z M75,188.3c-35.9,0-65-29.1-65-65s29.1-65,65-65s65,29.1,65,65C140,159.2,110.9,188.3,75,188.3z"/>
<rect x="190.1" class="st0" width="10" height="198.3"/>
<path class="st0" d="M315.1,48.3c-41.4,0-75,33.5-75,75c0,41.4,33.5,75,75,75c26.9,0,51.7-14.4,65.1-37.7v37.7h10v-75
	C390.1,81.9,356.5,48.3,315.1,48.3z M315.1,188.3c-35.9,0-65-29.1-65-65s29.1-65,65-65s65,29.1,65,65
	C380.1,159.2,351,188.3,315.1,188.3z"/>
<path class="st0" d="M505.1,47.2c-41.4,0-75,33.6-75,75v76.1h10v-76.1c0-35.9,29.1-65,65-65s65,29.1,65,65l0,0v76.1h10v-76.1
	C580.1,80.8,546.5,47.3,505.1,47.2z"/>
<path class="st0" d="M763.9,123.3h10c0-41.4-33.6-74.9-75-74.9c-41.4,0-74.9,33.6-74.9,75c0,41.4,33.6,74.9,75,74.9
	c34.5,0,64.5-23.5,72.7-57l-9.7-2.4c-8.6,34.9-43.8,56.2-78.6,47.6c-29.1-7.2-49.5-33.2-49.5-63.2H763.9z M698.9,58.3
	c32,0,59.3,23.4,64.2,55H634.6C639.6,81.7,666.9,58.3,698.9,58.3z"/>
<polygon class="st0" points="855.2,0 845.2,0 845.2,47.2 800.2,47.2 800.2,57.2 845.2,57.2 845.2,198.3 855.2,198.3 855.2,57.2 
	900.2,57.2 900.2,47.2 855.2,47.2 "/>
<path class="st0" d="M1192.8,90.1c-3.5-10.3-17.4-15.2-40.4-14.3c-26.2-32-73.4-36.8-105.4-10.6c-7.1,5.8-13,12.8-17.6,20.8V0h-10
	v120.7c-18.8,13.2-26.8,25.5-23.4,35.8c3.2,9.5,15.4,14.4,35.4,14.4c1.2,0,2.5,0,3.7,0l1.2-0.1c26.3,32,73.5,36.7,105.6,10.4
	c16.6-13.6,26.6-33.8,27.4-55.2c0.3-0.2,0.7-0.5,1-0.7C1188.5,112.3,1196.2,100.2,1192.8,90.1z M1094.5,58.3
	c34.9,0,63.5,27.5,64.9,62.4c-15,9.8-34.9,19.1-56.9,26.5s-43.4,12-61.3,13.4c-20.6-29.4-13.3-70,16.1-90.5
	C1068.2,62.4,1081.2,58.3,1094.5,58.3z M1005.5,153.3c-1.2-3.6,2.2-10.8,14.5-20.6c1.2,9.9,4.5,19.5,9.5,28.2
	C1018.6,160.6,1007.3,158.5,1005.5,153.3z M1094.5,188.3c-17,0-33.2-6.6-45.3-18.5c17.1-2,36.7-6.5,56.6-13.2s38.2-15,53.1-23.8
	C1154,164.7,1126.7,188.3,1094.5,188.3z M1168.8,113.9c-1.2-9.9-4.5-19.5-9.5-28.2c15.8,0.3,22.8,4,24,7.6
	C1185.1,98.6,1177.4,107.1,1168.8,113.9z"/>
</svg>
