<svg id="Planet_B_Logo" data-name="Planet B Logo" xmlns="http://www.w3.org/2000/svg" viewBox="0 0 800 800"><defs><style>.cls-1{fill:#1c2c58;}</style></defs><title>planetB_logoMark_darkBlue</title><path class="cls-1" d="M997.37,566c-12.74-37.79-70.14-56.14-161.85-51.87a305,305,0,0,0-23.41-26.3A300.33,300.33,0,0,0,320,591.84V200H300V694.71C224.41,746.83,189.85,796.18,202.59,834c6.47,19.2,24.15,33.4,52.54,42.19,22.11,6.84,50.28,10.29,83.91,10.29q7.41,0,15.16-.23c3.37-.09,6.79-.23,10.23-.39a306.81,306.81,0,0,0,23.42,26.3A300,300,0,0,0,899.91,705.32c2.85-2,5.67-3.93,8.42-5.91,32.86-23.53,57.33-46.4,72.76-68C998.36,607.23,1003.84,585.23,997.37,566ZM402,502A280,280,0,0,1,879.91,694.71C816.3,737,730.88,777.23,636.71,809s-186.54,51.48-262.8,56.31A280.12,280.12,0,0,1,402,502Zm-140.94,355c-21.91-6.78-35.2-16.7-39.51-29.47-8.84-26.21,20.52-66.29,79-108.79a297.27,297.27,0,0,0,49.61,147.52C313.57,867.13,283.58,864,261.05,857.05ZM798,898a280,280,0,0,1-396,0q-6.71-6.71-12.88-13.78c75.15-6.33,163.85-25.9,254-56.29s172.59-68.51,236.23-109A277.91,277.91,0,0,1,798,898Zm166.85-278.2c-13.72,19.22-35.75,39.87-65.44,61.41a297.17,297.17,0,0,0-49.61-147.52c72.24-1.59,119.82,12.54,128.65,38.74C982.72,585.19,978.14,601.13,964.81,619.79Z" transform="translate(-200 -200)"/></svg>