<svg xmlns="http://www.w3.org/2000/svg" viewBox="0 0 50 60">
  <defs>
    <style>
      .cls-1 {
        fill: none;
      }

      .cls-2 {
        fill: #f2f2f2;
        fill-rule: evenodd;
      }
    </style>
  </defs>
  <g id="Twitter" transform="translate(-1228.874 -36.977)">
    <rect id="Rectangle_393" data-name="Rectangle 393" class="cls-1" width="50" height="60" transform="translate(1228.874 36.977)"/>
    <path id="Twitter-2" data-name="Twitter" class="cls-2" d="M53.833,42.556C72.722,42.556,83,27,83,13.389V12a22.579,22.579,0,0,0,5-5.278,23.059,23.059,0,0,1-5.833,1.667,10.807,10.807,0,0,0,4.444-5.556,25.479,25.479,0,0,1-6.389,2.5A9.92,9.92,0,0,0,72.722,2,10.436,10.436,0,0,0,62.444,12.278a5.415,5.415,0,0,0,.278,2.222A28.719,28.719,0,0,1,41.611,3.667a10.638,10.638,0,0,0-1.389,5.278,11.036,11.036,0,0,0,4.444,8.611,9.364,9.364,0,0,1-4.722-1.389h0a10.152,10.152,0,0,0,8.333,10,8.563,8.563,0,0,1-2.778.278,4.727,4.727,0,0,1-1.944-.278,10.523,10.523,0,0,0,9.722,7.222A20.973,20.973,0,0,1,40.5,37.833a7.69,7.69,0,0,1-2.5-.278,26.219,26.219,0,0,0,15.833,5" transform="translate(1190.874 44.977)"/>
  </g>
</svg>
